<mxfile host="app.diagrams.net" agent="Mozilla/5.0 (Windows NT 10.0; Win64; x64) AppleWebKit/537.36 (KHTML, like Gecko) Chrome/124.0.0.0 Safari/537.36 SLBrowser/9.0.5.8121 SLBChan/33 SLBVPV/64-bit" version="24.7.16">
  <diagram name="第 1 页" id="ZsF2iYxV67lN8eZjqcqH">
    <mxGraphModel dx="1290" dy="541" grid="1" gridSize="10" guides="1" tooltips="1" connect="1" arrows="1" fold="1" page="1" pageScale="1" pageWidth="827" pageHeight="1169" math="0" shadow="0">
      <root>
        <mxCell id="0" />
        <mxCell id="1" parent="0" />
        <mxCell id="0QUZJTrusJGOhA74ACbi-1" value="&lt;font style=&quot;font-size: 24px;&quot;&gt;&lt;b&gt;Test&lt;/b&gt;&lt;/font&gt;" style="rounded=1;whiteSpace=wrap;html=1;fillColor=#B3FF66;" vertex="1" parent="1">
          <mxGeometry x="335" y="400" width="260" height="80" as="geometry" />
        </mxCell>
        <mxCell id="0QUZJTrusJGOhA74ACbi-2" value="&lt;font style=&quot;&quot;&gt;&lt;b style=&quot;&quot;&gt;&lt;span style=&quot;font-size: 24px;&quot;&gt;Core Container&lt;/span&gt;&lt;br&gt;&lt;font style=&quot;font-size: 14px;&quot;&gt;Bean context&lt;/font&gt;&lt;/b&gt;&lt;/font&gt;" style="rounded=1;whiteSpace=wrap;html=1;fillColor=#B3FF66;" vertex="1" parent="1">
          <mxGeometry x="345" y="270" width="230" height="80" as="geometry" />
        </mxCell>
        <mxCell id="0QUZJTrusJGOhA74ACbi-3" value="&lt;font style=&quot;font-size: 24px;&quot;&gt;&lt;b&gt;AOP&lt;/b&gt;&lt;/font&gt;" style="rounded=1;whiteSpace=wrap;html=1;fillColor=#B3FF66;" vertex="1" parent="1">
          <mxGeometry x="365" y="160" width="190" height="80" as="geometry" />
        </mxCell>
        <mxCell id="0QUZJTrusJGOhA74ACbi-4" value="&lt;font style=&quot;font-size: 24px;&quot;&gt;&lt;b&gt;Data Access&lt;/b&gt;&lt;/font&gt;&lt;div&gt;&lt;font style=&quot;font-size: 14px;&quot;&gt;&lt;b style=&quot;&quot;&gt;JDBC-ORM框架&lt;/b&gt;&lt;/font&gt;&lt;/div&gt;" style="rounded=1;whiteSpace=wrap;html=1;fillColor=#B3FF66;" vertex="1" parent="1">
          <mxGeometry x="260" y="20" width="190" height="100" as="geometry" />
        </mxCell>
        <mxCell id="0QUZJTrusJGOhA74ACbi-5" value="&lt;font style=&quot;font-size: 24px;&quot;&gt;&lt;b&gt;WEB-MVC&lt;/b&gt;&lt;/font&gt;" style="rounded=1;whiteSpace=wrap;html=1;fillColor=#B3FF66;" vertex="1" parent="1">
          <mxGeometry x="490" y="25" width="190" height="95" as="geometry" />
        </mxCell>
      </root>
    </mxGraphModel>
  </diagram>
</mxfile>
